# xmcd CD database file
#
# Track frame offsets:
#	150
#	19290
#	37400
#	55248
#	68800
#	85070
#	102078
#	119213
#	136073
#	169015
#
# Disc length: 2561 seconds
#
# Revision: 0
# Processed by: cddbd v1.5.1PL0 Copyright (c) Steve Scherf et al.
# Submitted via: CDex 1.51
#
DISCID=8b09ff0a
DTITLE=帝国歌劇団 - サクラ大戦　スーパー歌謡全集IV　新・青い鳥
DYEAR=2005
DGENRE=Pop
TTITLE0=花のレビュウ
TTITLE1=恋をしませう
TTITLE2=見よ暁に！
TTITLE3=時の流れに
TTITLE4=夢のなかに
TTITLE5=可憐な花よ、強い花よ
TTITLE6=猫の歌、犬の歌
TTITLE7=ブルーバード
TTITLE8=夜のロンド・光のソナタ
TTITLE9=希望〜新・青い鳥より〜
EXTD=YEAR: 2005
EXTT0=
EXTT1=
EXTT2=
EXTT3=
EXTT4=
EXTT5=
EXTT6=
EXTT7=
EXTT8=
EXTT9=
PLAYORDER=
